<svg id="Graphic_element" data-name="Graphic element" style="fill:#fff" xmlns="http://www.w3.org/2000/svg" viewBox="0 0 1200 1200"><path d="M1145,954.13c-.2-3.14-.85-6.25-1.2-9.4q-2.21-19.29-4.31-38.61-3.37-30.72-6.64-61.43c-1.79-17-3.53-34.05-5.33-51.06q-2.84-26.75-5.73-53.51-2.61-24.75-5.24-49.55-2.88-27-5.72-54c-1.45-13.71-2.84-27.44-4.3-41.15-1.86-17.67-3.78-35.34-5.65-53q-2.17-20.29-4.33-40.63-2.77-25.51-5.61-51-2.7-24.53-5.36-49.05-2.8-25-5.64-50c-1.79-15.85-3.48-31.7-5.33-47.52-2.14-18.47-4.29-36.92-6.6-55.34-1.74-14-3.94-27.92-5.59-41.89-.68-5.64-2.81-11.17-1-17.11.82-2.71-1.84-5.4-4.91-5.84a16.5,16.5,0,0,0-5,.09c-8.17,1.37-16.35,2.79-24.51,4.36-8.45,1.62-16.87,3.44-25.82,5.26.08-9-.52-17.6-1.19-26.19-.62-8.1-.75-16.25-2.72-24.23-1.05-4.19-1.65-5.06-6-4.44a126.34,126.34,0,0,0-13.16,2.72q-16.41,4.26-32.7,8.88c-3.34,1-4,.59-4.58-2.8-1.23-6.68-2.95-13.29-4.59-19.88-1.54-6.29-2.62-12.72-5.38-18.63-2.45-5.18-3.35-5.52-9-4.21-15.06,3.54-29.61,8.7-44.27,13.64-1.32.45-2.61,1.24-3.89,1.07a5.66,5.66,0,0,1-1.21-3.09c-1.88-10.8-4.42-21.46-7-32.1C863.82,77.87,862.38,77,856,79c-6.64,2.12-13.29,4.26-19.82,6.67-19.94,7.39-39.53,15.61-59.21,23.66-1.6.65-3.12,1.74-5.14,1.56-.42-2-.83-3.78-1.17-5.54-2.55-12.86-4.88-25.77-8-38.54-1.46-6-2.77-6.75-8.73-4.53q-6.09,2.23-12,4.8c-25.5,11-50.37,23.21-75.17,35.62-73.69,36.86-146.72,75-220,112.6-26.29,13.52-52.54,27.14-79.16,40a8.07,8.07,0,0,1-6.57.48,212.86,212.86,0,0,0-46.81-9.27,208.76,208.76,0,0,0-87,10.29c-28.49,9.74-53.63,24.79-73.5,47.8-20.56,23.82-31.33,51.47-31.3,83,0,18.72,4.6,36.49,12.61,53.42.73,1.56,1.9,3,2,5.08a89,89,0,0,0-22.18,12.56c-26.73,21.06-45.29,47.88-56,80.11-2.54,7.57-4.12,15.4-3.66,23.5.19,3.14.94,6.12,4,7.52s5.36-.92,7.35-2.87c7.46-7.17,16.43-11.76,26-15.42,1.35-.53,2.64-1.47,4.51-1,.85,12.36,3.29,24.54,5.45,36.76a28.94,28.94,0,0,0,2.9,9c1.1,2,2.64,3.55,5.13,3.25,2.2-.23,3.41-1.67,4.19-3.75,1.9-5.13,4-10.19,5.93-15.33a117.7,117.7,0,0,1,22.75-37.77c14.24-15.81,31.06-27.44,52.22-32.06a10.71,10.71,0,0,1,8,1.19,198.37,198.37,0,0,0,37,15.93c6.78,2.12,13.46.55,20.16-.14a10,10,0,0,0,2.73-1.15,38.18,38.18,0,0,0,11-7.66c11.91-11.61,18.27-25.94,20.26-42.29.53-4.42,1.25-9.3-1.26-13.16a16.14,16.14,0,0,1-2.56-9.77,15.54,15.54,0,0,0-.57-3.92c-4-16.89-14.4-28.88-29.05-37.51a43.8,43.8,0,0,0-24.33-6.07c-3.93.17-4,.09-4.89-3.75a76.42,76.42,0,0,1,.09-36.51c7.46-29.45,30.74-52.61,67.63-52.22,2.52,0,3.64.66,3.69,3.3.05,4,.27,8,.63,11.94q2.34,25.75,4.83,51.54c1.33,13.53,2.69,27.07,4.24,40.6q3.26,28.45,6.8,56.87,3,24.72,6.23,49.4c2.79,21.23,5.69,42.45,8.53,63.66Q338.81,622,343,653.13c2.87,21.06,5.81,42.11,8.7,63.15q4.19,30.62,8.35,61.22,4.26,31.1,8.57,62.18,3.7,26.88,7.41,53.78,4.26,30.85,8.56,61.69,3.75,26.86,7.39,53.79,3,22.24,5.7,44.48a29.61,29.61,0,0,0,4.58,12.49c2.08,3.22,4.32,6.31,5,10.17.2,1,.57,2.12,1.57,2.42,2.82.84,4,3.36,5.71,5.33a86,86,0,0,0,9.85,9.89c29.41,24.63,63.05,39.73,101.16,44.52,10.09,1.25,20.28.84,30-2.94a123.15,123.15,0,0,1,11.79-3.89c80.63-22.31,161-45.52,241.43-68.52,48.5-13.87,97.08-27.53,145.48-41.81,37.73-11.12,75.44-22.39,113.18-33.55,20.83-6.18,42-11.52,62.16-19.71a9.71,9.71,0,0,1,3.41-.48C1141.07,967,1145.48,962.21,1145,954.13ZM934.47,166.32c17.1-5.43,34.27-10.56,51.15-16.6.44-.14.92-.23,1.29-.32,0,4.3.27,8.58-.07,12.81-.8,10.12-.82,20.24-.9,30.38,0,4.39,0,4.39-4,5.26q-107.31,23.28-214.38,47.6a22,22,0,0,1-2.93.3c-9.86,2.29-19.7,4.69-29.57,6.91q-76.71,17.27-153.5,34.47-64.15,14.28-128.36,28.28a6.41,6.41,0,0,1-1,.18c-1.85.19-4.39,1.49-4.81-1.52-.3-2.29,2.38-1.88,3.71-2.27,38.93-12.19,78.11-23.48,117.22-35.17,111.21-33.22,222.53-66,333.5-100.09,1.12-.32,2.24-.55,3.39-.8C914.79,172,924.7,169.44,934.47,166.32ZM868.53,136c5.25-2.79,11-4.51,16.53-6.73,11.08-4.46,22.2-8.79,33.07-13.8,1-.46,2-1.3,3.48-.9.9,6.76,1.78,13.63,2.72,20.46.76,5.43,1.49,10.87,2.37,16.28.65,4.14.72,4.14-3.39,5.33q-43,12.53-86,25.07-44.91,13.2-89.72,26.52a9,9,0,0,1-2.47.62,3,3,0,0,1-.43,0c-13.81,4.18-27.59,8.44-41.4,12.61Q582,257.8,460.7,294.13c-6.85,2-13.76,3.84-20.64,5.66-4.06,1.07-4.08,1-6.92-2.92,10.17-3.77,20.26-7.48,30.35-11.21,127.66-47.31,255.6-93.9,383.1-141.57C853.89,141.34,861.19,138.71,868.53,136ZM419.33,279.55q103.94-45,207.84-89.9c54.61-23.73,109.09-47.76,163.65-71.65.89-.41,1.84-.68,2.79-1,3.71-2.51,8-3.89,12-5.75,16-7.41,32.1-14.48,47.58-22.86.59-.3,1.24-.47,2-.8,1.51,4.57,1.19,9.27,2,13.84,1,6.21,1.62,12.51,2.39,18.77.58,4.46.58,4.46-3.44,5.91-10.76,3.86-21.56,7.69-32.32,11.61q-60.6,21.94-121.21,43.94c-1.51.54-3,1.52-4.74,1.34-10.84,4.59-22,8.28-33.07,12.32Q548.43,237.78,432,280.24c-3.89,1.42-8,2.38-11.64,4.34-2.69,1.43-3.64-1.5-5.78-2.21C415.87,280.42,417.76,280.22,419.33,279.55ZM175.81,496.38c-29.12,13.29-49.55,34.9-61.89,64.31-.2.44-.45.89-.68,1.32.06.6.18,1.34-.72,1.22-.43-.07-.47-.73-.27-1.22a156.93,156.93,0,0,1-1.9-26c-2.42-5.24-7.62-6.14-13.71-2.88-8.3,4.49-17.16,7.91-25.06,13.14-.5.8-1.21,1.87-2.1,1.05s-.15-1.77.73-2.39c12.15-30.71,31-56.16,58.59-74.75a28.47,28.47,0,0,1,7.39-4,7.12,7.12,0,0,1,1.13-.89c8.92-4.29,8.94-4.29,15.08,3.52a170.27,170.27,0,0,0,25.4,25.66C177.82,496,176.63,496,175.81,496.38Zm102.46-43.16c-15.36-5.41-27.07-14.29-35.87-27.52C254.26,424.77,272.73,439,278.27,453.22ZM283.35,297c-40.28,5.06-71.2,35.74-77.17,76.07-.44,3.11-.09,6.32-1.12,9.36.66,7.6.55,15.29,2.37,22.77C216.38,442,238.66,466,275.48,476c.62.18,1.26.32,1.88.5a7.07,7.07,0,0,1,.91.64c-4.44,11.85-10,22.91-21.35,30.07-1.42.92-2.81,1.54-4.63.74-7.92-3.41-16.13-6.13-23.93-9.87-23.57-11.33-44.06-26.62-59.78-47.72-14.76-19.77-22.94-41.88-22.34-66.78.57-25.29,10.3-47.1,26.55-66.17,5.35-6.31,11.07-12.36,18-17A111.8,111.8,0,0,1,208,288.09a153,153,0,0,1,18.93-9.29c28.17-11.56,57.51-15.73,87.81-13.19,35,2.89,67.1,13.89,95.88,34.13a193.13,193.13,0,0,1,24.5,20.53c-1.74,2.4-4.32,2.65-6.63,3.25a55.63,55.63,0,0,1-14.83,1.62c-31.2-.38-61.36-6-90-18.67a46.68,46.68,0,0,1-6.24-3.14C306.92,296.52,295.21,295.53,283.35,297Zm214.44,809.54a185.75,185.75,0,0,1-38.44-16,136.33,136.33,0,0,1-27.6-19.52c-2.2-2-4.26-4.18-6.27-6.43a14.46,14.46,0,0,1-4-10.21c-.1-6.43-1.63-12.84-2.47-19.27-2.19-16.62-5-33.18-6.62-49.87-1.67-5.58-1.9-11.42-2.7-17.14q-6-43.67-11.88-87.36c-3.8-28.15-7.53-56.28-11.37-84.42-3.82-28-7.73-55.94-11.57-83.89-3.49-25.5-6.88-51-10.39-76.5q-5.72-41.19-11.57-82.35c-3.41-24-6.78-48-10.32-71.95-4.81-32.52-9.89-65-15.45-97.39-3.19-18.67-6.5-37.3-10.19-55.86a12,12,0,0,1,0-2.17,20.64,20.64,0,0,1,1.9.82c18.93,11.17,39.73,16.57,61.25,19.59,3.45.48,6.93.87,10.4,1,2.3.09,3.14.87,3.26,3.23.75,12.1,2.13,24.16,3.59,36.17q3.93,32.39,7.93,64.7,3.56,28.63,7.32,57.27c2.74,20.74,5.67,41.43,8.51,62.14q4.22,30.35,8.42,60.67c2.77,19.54,5.61,39.07,8.4,58.61,2.52,17.42,5.08,34.82,7.5,52.27.28,1.84,1,3.64,1,5.5a6.11,6.11,0,0,1-.12,1.35c2.36,15.93,4.76,31.85,7.1,47.78q4.8,32.76,9.57,65.53,4.21,28.81,8.37,57.67,4.8,32.79,9.57,65.57,4.69,32,9.36,64.11,3.81,26.11,7.52,52.29C498,1103.77,498.49,1105,497.79,1106.56ZM1101.36,802.9c-7.18,38.52-23.7,73.1-45.78,105.14-16.4,23.78-35.12,45.52-57.4,64.06-1.25,1.07-2.64,2-4,3-8,7-16.82,13.14-26.62,17.26-7.09,3-14.92,4.39-22.47,6.36-85.94,22.34-171.63,45.57-257.39,68.52-37.53,10-75,20.33-112.43,30.53a14.1,14.1,0,0,0-1.91.55c-2,.82-3,.28-3.27-2-.85-6.23-2-12.46-2.89-18.68-3.94-26.46-7.93-52.87-11.76-79.32-3.55-24.5-6.89-49-10.37-73.5-3.82-26.61-7.76-53.23-11.6-79.85-3.46-24.16-6.85-48.33-10.34-72.48Q517.45,733,511.6,693.55c-3.46-23.67-6.86-47.35-10.37-71q-5.16-34.73-10.57-69.43-5-32.24-10.24-64.38c-4.91-29.82-10-59.57-15.51-89.28-3.36-18.29-6.68-36.59-11.14-54.66-.76-3.13-.6-3.36,2.45-4.14a22,22,0,0,1,3-.29l.14-.08c.45-.84,1.2-.77,2-.62,15-3.69,30-7.41,44.94-11,114.67-27.74,229.65-54.21,344.42-81.5a20.82,20.82,0,0,1,5.93-.72c15.93.74,31.88,1.47,47.6,4.36,41.52,7.64,79,24,110.54,52.51a163.58,163.58,0,0,1,45.73,69.06c2.59,7.51,2.57,15.36,3.42,23.09,2.35,21.81,4.46,43.64,6.68,65.44q2.68,26.81,5.43,53.57,3.21,31,6.53,61.95,2.68,25.55,5.36,51.07,3.3,31,6.61,61.94,2.71,25.79,5.38,51.57c1.19,11.38,2.29,22.8,3.64,34.19C1104.63,784.57,1103.08,793.77,1101.36,802.9Z"/></svg>